<svg version="1.0" xmlns="http://www.w3.org/2000/svg"
     width="700" height="500" viewBox="0 0 1280.000000 960.000000"
     preserveAspectRatio="xMidYMid meet">

    <g transform="translate(0.000000,960.000000) scale(0.100000,-0.100000)"
       fill="#0000ff" stroke="none">
        <path d="M6280 7704 c-63 -36 -144 -83 -180 -104 -36 -21 -227 -132 -425 -246
-198 -114 -540 -312 -760 -439 -220 -127 -554 -320 -742 -429 l-343 -198 0
-344 0 -344 80 0 80 0 0 255 c0 140 2 255 4 255 3 0 601 -345 726 -418 12 -8
12 -14 -2 -50 l-16 -42 144 0 c142 0 144 0 134 20 -11 20 -8 20 1385 20 1393
0 1396 0 1385 -20 -10 -20 -8 -20 134 -20 l144 0 -15 40 c-9 22 -14 42 -12 44
6 6 187 104 344 186 77 41 208 111 291 155 84 45 159 85 168 88 14 6 16 -19
16 -253 l0 -260 75 0 75 0 0 344 0 344 -342 198 c-345 199 -1123 649 -1188
687 -19 11 -118 68 -220 127 -102 58 -261 151 -355 205 -322 186 -443 255
-456 260 -8 3 -66 -25 -129 -61z m352 -520 c123 -155 367 -463 543 -684 492
-619 555 -699 555 -705 0 -3 -614 -5 -1365 -5 -751 0 -1365 3 -1365 6 0 4 33
45 73 93 101 120 588 702 986 1178 185 222 339 402 343 400 3 -1 107 -129 230
-283z m103 216 c50 -29 164 -95 255 -148 91 -52 221 -127 290 -167 69 -40 202
-116 295 -170 94 -54 240 -139 325 -188 85 -50 232 -134 325 -188 94 -55 243
-141 332 -191 89 -51 162 -95 163 -98 0 -3 -28 -20 -63 -37 -34 -18 -141 -75
-237 -126 -96 -51 -242 -129 -325 -172 -82 -43 -158 -83 -168 -89 -14 -9 -21
-7 -30 5 -7 8 -208 264 -447 568 -239 304 -455 579 -480 611 -62 80 -286 365
-329 419 -40 49 -43 50 94 -29z m-576 43 c-8 -10 -35 -43 -60 -73 -25 -30
-178 -215 -339 -410 -855 -1033 -940 -1135 -955 -1134 -7 1 -64 32 -126 69
-63 37 -143 84 -179 105 -36 21 -95 55 -131 76 -36 22 -116 68 -177 104 -61
36 -112 67 -111 70 0 3 82 52 182 109 100 58 252 145 337 194 143 83 226 131
595 345 72 41 186 107 255 147 365 210 466 269 585 338 72 42 132 77 134 77 2
0 -3 -8 -10 -17z"/>
        <path d="M2785 5327 c-132 -44 -204 -136 -213 -272 -6 -101 15 -160 77 -218
57 -54 72 -61 226 -122 164 -64 206 -109 175 -189 -16 -44 -62 -59 -165 -54
-85 5 -145 22 -282 85 -10 4 -13 -19 -13 -96 l0 -101 38 -23 c131 -82 357 -97
496 -34 112 51 159 132 160 272 1 80 -2 95 -26 135 -50 85 -111 127 -272 188
-175 66 -209 99 -191 183 8 35 55 69 96 69 14 0 83 -20 153 -45 71 -25 131
-45 135 -45 4 0 23 33 43 74 l36 73 -86 64 -87 63 -130 3 c-88 2 -143 -1 -170
-10z"/>
        <path d="M8620 5325 c-73 -21 -127 -54 -179 -110 -74 -81 -108 -183 -117 -355
-21 -394 126 -593 441 -593 214 0 342 87 405 274 41 121 47 328 14 478 -31
136 -120 249 -232 292 -75 29 -251 36 -332 14z m270 -221 c50 -29 78 -91 91
-207 9 -75 9 -121 0 -190 -18 -141 -49 -194 -128 -223 -75 -26 -186 -11 -235
33 -61 55 -90 214 -70 384 14 118 38 172 92 203 64 38 186 38 250 0z"/>
        <path d="M3721 5308 c-4 -13 -48 -144 -97 -292 l-89 -268 -47 -24 -48 -24 0
-71 c0 -53 -9 -101 -40 -201 -22 -72 -43 -134 -46 -139 -3 -5 44 -9 105 -9
l110 0 26 88 c15 48 33 107 41 132 l14 45 217 -5 216 -5 42 -125 42 -125 101
-3 102 -3 0 87 c0 86 0 86 -59 198 -33 61 -70 143 -84 181 -55 154 -137 385
-171 479 -20 54 -36 100 -36 102 0 2 -65 4 -145 4 -142 0 -146 -1 -154 -22z
m199 -285 c18 -58 46 -147 62 -196 16 -49 27 -91 25 -93 -2 -3 -65 -3 -139 -2
l-136 3 34 110 c19 61 46 149 61 198 37 120 50 118 93 -20z"/>
        <path d="M4510 4934 c0 -326 -3 -410 -16 -479 -14 -71 -15 -91 -4 -129 l13
-46 341 0 342 0 36 47 36 46 -51 65 c-46 59 -52 63 -81 58 -31 -6 -333 -26
-391 -26 l-31 0 4 430 4 430 -101 0 -101 0 0 -396z"/>
        <path d="M5170 5286 c0 -46 22 -119 170 -571 49 -148 101 -307 115 -353 l27
-83 131 3 131 3 82 250 c211 645 224 687 224 742 l0 54 -107 -3 -108 -3 -96
-385 c-53 -212 -100 -397 -103 -412 -6 -31 -32 -38 -40 -10 -2 9 -25 98 -50
197 -83 328 -147 580 -152 598 -5 15 -19 17 -115 17 l-109 0 0 -44z"/>
        <path d="M6372 5313 c-6 -10 -51 -142 -101 -293 l-91 -275 -45 -18 -45 -19 0
-66 c0 -48 -11 -101 -40 -198 -22 -72 -42 -139 -46 -148 -5 -14 6 -16 103 -16
l109 0 37 126 c20 70 38 128 39 129 6 6 60 7 245 6 l192 -1 43 -130 42 -130
103 0 103 0 0 84 c0 82 -1 84 -56 186 -57 104 -69 133 -150 360 -24 69 -68
190 -97 270 l-52 145 -142 3 c-128 2 -143 1 -151 -15z m179 -243 c9 -30 37
-118 62 -195 l44 -140 -135 -3 c-74 -1 -136 -1 -139 1 -3 4 9 48 78 270 46
147 61 158 90 67z"/>
        <path d="M6950 5227 l0 -104 28 3 c15 2 89 5 165 7 l137 4 0 -428 0 -429 104
0 103 0 7 48 c3 26 1 85 -4 132 -5 47 -10 219 -10 384 l0 299 58 -7 c31 -3
107 -6 167 -7 l110 -2 3 102 3 101 -436 0 -435 0 0 -103z"/>
        <path d="M7953 5287 c-5 -23 -6 -69 -2 -102 4 -33 8 -250 8 -482 l1 -423 105
0 105 0 0 525 0 525 -104 0 -104 0 -9 -43z"/>
        <path d="M9376 5282 c-14 -42 -14 -54 -1 -117 12 -55 15 -156 15 -477 l0 -408
111 0 111 0 -7 320 c-4 182 -4 320 1 320 5 -1 58 -74 118 -163 60 -89 156
-233 215 -319 l106 -158 88 0 87 0 0 398 c0 218 3 454 7 525 l6 127 -106 0
-107 0 0 -319 c0 -190 -4 -322 -9 -326 -6 -3 -22 16 -37 42 -15 27 -113 173
-217 326 l-189 277 -88 0 -88 0 -16 -48z"/>
        <path d="M3832 3663 l3 -348 205 -117 c212 -122 325 -188 420 -244 61 -36 595
-344 1020 -589 151 -87 300 -173 330 -191 253 -149 579 -334 590 -334 11 0
249 135 600 340 36 21 153 88 260 150 107 62 224 129 260 150 36 21 223 129
415 240 193 111 373 215 400 231 28 16 181 105 340 197 l290 168 3 347 2 347
-75 0 -74 0 -3 -152 -3 -153 -62 150 -61 150 -87 3 c-101 3 -97 16 -35 -133
123 -292 150 -360 146 -372 -3 -7 -15 -13 -26 -13 -12 0 -159 -23 -328 -50
-169 -28 -374 -61 -457 -75 -370 -60 -657 -107 -740 -120 -49 -8 -202 -33
-339 -55 -137 -23 -254 -40 -261 -38 -9 2 179 348 432 793 15 27 30 53 31 57
2 5 -37 8 -86 8 l-90 0 -107 -191 c-59 -106 -124 -222 -144 -258 -102 -189
-195 -351 -201 -351 -3 0 -42 62 -86 138 -45 75 -150 255 -235 400 l-154 262
-87 0 c-84 0 -99 -5 -79 -25 8 -9 152 -253 384 -650 39 -66 79 -133 90 -148
10 -16 18 -29 16 -31 -2 -2 -78 10 -169 25 -155 25 -567 92 -1075 174 -121 20
-355 58 -520 85 -165 27 -321 52 -348 55 -26 4 -50 11 -53 16 -3 5 36 116 85
248 50 131 91 241 91 245 0 3 -36 6 -80 6 l-79 0 -19 -42 c-10 -24 -34 -86
-53 -138 l-34 -95 -3 138 -3 137 -79 0 -80 0 2 -347z m404 -348 c97 -16 385
-62 584 -94 187 -30 434 -70 535 -86 96 -15 262 -42 630 -100 127 -20 254 -41
283 -46 l52 -10 0 -459 0 -458 -87 50 c-49 28 -178 102 -288 166 -110 64 -240
139 -290 167 -49 29 -133 77 -185 107 -52 30 -219 126 -370 213 -151 87 -403
233 -560 323 -157 90 -313 180 -347 199 -89 49 -88 50 43 28z m4434 11 c0 -3
-24 -17 -52 -33 -29 -16 -219 -125 -423 -243 -203 -117 -469 -270 -590 -340
-121 -69 -371 -214 -555 -320 -184 -106 -388 -224 -452 -261 l-118 -67 0 458
0 458 28 6 c15 3 99 17 187 31 88 14 230 36 315 50 85 14 211 34 280 45 69 11
195 31 280 45 85 14 214 34 285 46 72 11 276 44 455 74 336 54 360 58 360 51z"/>
    </g>
</svg>